<svg width="30" height="30" viewBox="0 0 30 30" fill="none" xmlns="http://www.w3.org/2000/svg">
<path d="M15 2.80835C12.0319 2.80847 9.16061 3.86474 6.89999 5.78816C4.63937 7.71158 3.13691 10.3766 2.66145 13.3065C2.18599 16.2363 2.76856 19.2397 4.30491 21.7793C5.84126 24.3189 8.23114 26.229 11.0469 27.1677C11.6719 27.2771 11.9063 26.9021 11.9063 26.574C11.9063 26.2771 11.8907 25.2927 11.8907 24.2458C8.75003 24.824 7.93753 23.4803 7.68753 22.7771C7.41013 22.0933 6.97038 21.4873 6.40628 21.0115C5.96878 20.7771 5.34378 20.199 6.39065 20.1834C6.79038 20.2268 7.17377 20.3658 7.50832 20.5889C7.84288 20.8119 8.11874 21.1123 8.31253 21.4646C8.4835 21.7717 8.71338 22.0421 8.98902 22.2602C9.26466 22.4783 9.58063 22.6399 9.91882 22.7357C10.257 22.8315 10.6108 22.8596 10.9599 22.8185C11.309 22.7773 11.6465 22.6677 11.9531 22.4958C12.0072 21.8604 12.2905 21.2662 12.75 20.824C9.96878 20.5115 7.06253 19.4333 7.06253 14.6521C7.04497 13.4098 7.50339 12.2079 8.34378 11.2928C7.96164 10.213 8.00635 9.02812 8.46878 7.98026C8.46878 7.98026 9.51562 7.65212 11.9063 9.26151C13.9516 8.69898 16.1109 8.69898 18.1563 9.26151C20.5469 7.63651 21.5938 7.98026 21.5938 7.98026C22.0563 9.0281 22.101 10.213 21.7188 11.2928C22.5617 12.2063 23.0205 13.4093 23 14.6521C23 19.449 20.0781 20.5115 17.2969 20.824C17.5952 21.1264 17.825 21.4894 17.9706 21.8884C18.1161 22.2874 18.1742 22.7131 18.1407 23.1365C18.1407 24.8084 18.125 26.1521 18.125 26.574C18.125 26.9021 18.3594 27.2928 18.9844 27.1678C21.7952 26.2213 24.1782 24.3068 25.708 21.7659C27.2379 19.225 27.8149 16.2231 27.3361 13.2961C26.8574 10.3692 25.354 7.70756 23.0944 5.78649C20.8347 3.86541 17.9659 2.80989 15 2.80835Z" fill="white"/>
</svg>
