<svg width="899" height="363" viewBox="0 0 899 363" fill="none" xmlns="http://www.w3.org/2000/svg">
<path d="M74.5889 89.2246V109H20.6826V89.2246H74.5889ZM29.8379 2.35938V109H4.12988V2.35938H29.8379ZM132.084 24.7715L106.083 109H78.4707L117.655 2.35938H135.16L132.084 24.7715ZM153.617 109L127.543 24.7715L124.174 2.35938H141.898L181.303 109H153.617ZM152.592 69.2295V89.0781H97.8799V69.2295H152.592ZM244.071 80.6553C244.071 78.9951 243.827 77.5059 243.339 76.1875C242.851 74.8203 241.947 73.5508 240.629 72.3789C239.311 71.207 237.406 70.0352 234.916 68.8633C232.475 67.6426 229.252 66.373 225.248 65.0547C220.561 63.4922 216.044 61.7344 211.698 59.7812C207.353 57.7793 203.471 55.46 200.053 52.8232C196.635 50.1377 193.925 47.0127 191.923 43.4482C189.921 39.835 188.92 35.6357 188.92 30.8506C188.92 26.2607 189.945 22.1348 191.996 18.4727C194.047 14.7617 196.903 11.6123 200.565 9.02441C204.276 6.3877 208.622 4.38574 213.603 3.01855C218.583 1.60254 224.027 0.894531 229.936 0.894531C237.748 0.894531 244.633 2.26172 250.59 4.99609C256.596 7.68164 261.283 11.5146 264.652 16.4951C268.07 21.4268 269.779 27.2617 269.779 34H244.218C244.218 31.3145 243.656 28.9463 242.533 26.8955C241.459 24.8447 239.823 23.2334 237.626 22.0615C235.429 20.8896 232.67 20.3037 229.35 20.3037C226.127 20.3037 223.417 20.792 221.22 21.7686C219.022 22.7451 217.362 24.0635 216.239 25.7236C215.116 27.335 214.555 29.1172 214.555 31.0703C214.555 32.6816 214.994 34.1465 215.873 35.4648C216.801 36.7344 218.095 37.9307 219.755 39.0537C221.464 40.1768 223.515 41.251 225.907 42.2764C228.349 43.3018 231.083 44.3027 234.11 45.2793C239.774 47.0859 244.804 49.1123 249.198 51.3584C253.642 53.5557 257.377 56.0703 260.404 58.9023C263.48 61.6855 265.8 64.8594 267.362 68.4238C268.974 71.9883 269.779 76.0166 269.779 80.5088C269.779 85.2939 268.852 89.542 266.996 93.2529C265.141 96.9639 262.479 100.113 259.013 102.701C255.546 105.24 251.396 107.169 246.562 108.487C241.728 109.806 236.332 110.465 230.375 110.465C224.906 110.465 219.511 109.781 214.188 108.414C208.915 106.998 204.13 104.85 199.833 101.969C195.536 99.0391 192.094 95.3037 189.506 90.7627C186.967 86.1729 185.697 80.7285 185.697 74.4297H211.479C211.479 77.5547 211.894 80.1914 212.724 82.3398C213.554 84.4883 214.774 86.2217 216.386 87.54C217.997 88.8096 219.975 89.7373 222.318 90.3232C224.662 90.8604 227.348 91.1289 230.375 91.1289C233.646 91.1289 236.283 90.665 238.285 89.7373C240.287 88.7607 241.752 87.4912 242.68 85.9287C243.607 84.3174 244.071 82.5596 244.071 80.6553ZM16.874 128.359H37.8213L61.625 202.554L85.4287 128.359H106.376L70.1211 235H53.1289L16.874 128.359ZM4.12988 128.359H25.8096L29.8379 210.098V235H4.12988V128.359ZM97.4404 128.359H119.193V235H93.4121V210.098L97.4404 128.359ZM209.062 215.225V235H152.226V215.225H209.062ZM161.381 128.359V235H135.673V128.359H161.381ZM201.737 170.693V189.81H152.226V170.693H201.737ZM209.281 128.359V148.208H152.226V128.359H209.281ZM262.016 201.528V128.359H287.65V201.528C287.65 208.657 286.015 214.834 282.743 220.059C279.521 225.283 275.126 229.336 269.56 232.217C264.042 235.049 257.841 236.465 250.956 236.465C243.827 236.465 237.479 235.269 231.913 232.876C226.396 230.483 222.05 226.797 218.876 221.816C215.751 216.836 214.188 210.488 214.188 202.773H239.97C239.97 206.387 240.385 209.219 241.215 211.27C242.045 213.271 243.266 214.688 244.877 215.518C246.537 216.299 248.563 216.689 250.956 216.689C253.3 216.689 255.277 216.104 256.889 214.932C258.549 213.711 259.818 211.978 260.697 209.731C261.576 207.437 262.016 204.702 262.016 201.528ZM394.218 179.556V183.877C394.218 192.031 393.07 199.355 390.775 205.85C388.529 212.295 385.331 217.812 381.181 222.402C377.03 226.943 372.123 230.435 366.459 232.876C360.795 235.269 354.545 236.465 347.709 236.465C340.824 236.465 334.525 235.269 328.812 232.876C323.148 230.435 318.217 226.943 314.018 222.402C309.867 217.812 306.645 212.295 304.35 205.85C302.104 199.355 300.98 192.031 300.98 183.877V179.556C300.98 171.401 302.104 164.077 304.35 157.583C306.645 151.089 309.843 145.571 313.944 141.03C318.095 136.44 323.002 132.949 328.666 130.557C334.379 128.115 340.678 126.895 347.562 126.895C354.398 126.895 360.648 128.115 366.312 130.557C372.025 132.949 376.957 136.44 381.107 141.03C385.258 145.571 388.48 151.089 390.775 157.583C393.07 164.077 394.218 171.401 394.218 179.556ZM368.144 183.877V179.409C368.144 174.136 367.68 169.497 366.752 165.493C365.873 161.44 364.555 158.047 362.797 155.312C361.039 152.578 358.866 150.527 356.278 149.16C353.739 147.744 350.834 147.036 347.562 147.036C344.145 147.036 341.166 147.744 338.627 149.16C336.088 150.527 333.964 152.578 332.255 155.312C330.546 158.047 329.252 161.44 328.373 165.493C327.543 169.497 327.128 174.136 327.128 179.409V183.877C327.128 189.102 327.543 193.74 328.373 197.793C329.252 201.797 330.546 205.19 332.255 207.974C334.013 210.757 336.161 212.856 338.7 214.272C341.288 215.688 344.291 216.396 347.709 216.396C350.98 216.396 353.886 215.688 356.425 214.272C358.964 212.856 361.088 210.757 362.797 207.974C364.555 205.19 365.873 201.797 366.752 197.793C367.68 193.74 368.144 189.102 368.144 183.877ZM407.548 128.359H449.516C457.719 128.359 464.848 129.58 470.902 132.021C476.957 134.463 481.62 138.076 484.892 142.861C488.212 147.646 489.872 153.555 489.872 160.586C489.872 166.689 488.92 171.792 487.016 175.894C485.111 179.995 482.45 183.389 479.032 186.074C475.663 188.711 471.732 190.884 467.24 192.593L458.817 197.354H423.588L423.441 177.505H449.516C452.787 177.505 455.497 176.919 457.646 175.747C459.794 174.575 461.405 172.915 462.479 170.767C463.603 168.569 464.164 165.957 464.164 162.93C464.164 159.854 463.603 157.217 462.479 155.02C461.356 152.822 459.696 151.138 457.499 149.966C455.351 148.794 452.689 148.208 449.516 148.208H433.256V235H407.548V128.359ZM465.922 235L442.338 187.832L469.584 187.686L493.461 233.901V235H465.922ZM578.788 215.225V235H521.952V215.225H578.788ZM531.107 128.359V235H505.399V128.359H531.107ZM571.464 170.693V189.81H521.952V170.693H571.464ZM579.008 128.359V148.208H521.952V128.359H579.008ZM644.267 206.655C644.267 204.995 644.022 203.506 643.534 202.188C643.046 200.82 642.143 199.551 640.824 198.379C639.506 197.207 637.602 196.035 635.111 194.863C632.67 193.643 629.447 192.373 625.443 191.055C620.756 189.492 616.239 187.734 611.894 185.781C607.548 183.779 603.666 181.46 600.248 178.823C596.83 176.138 594.12 173.013 592.118 169.448C590.116 165.835 589.115 161.636 589.115 156.851C589.115 152.261 590.141 148.135 592.191 144.473C594.242 140.762 597.099 137.612 600.761 135.024C604.472 132.388 608.817 130.386 613.798 129.019C618.778 127.603 624.223 126.895 630.131 126.895C637.943 126.895 644.828 128.262 650.785 130.996C656.791 133.682 661.479 137.515 664.848 142.495C668.266 147.427 669.975 153.262 669.975 160H644.413C644.413 157.314 643.852 154.946 642.729 152.896C641.654 150.845 640.019 149.233 637.821 148.062C635.624 146.89 632.865 146.304 629.545 146.304C626.322 146.304 623.612 146.792 621.415 147.769C619.218 148.745 617.558 150.063 616.435 151.724C615.312 153.335 614.75 155.117 614.75 157.07C614.75 158.682 615.189 160.146 616.068 161.465C616.996 162.734 618.29 163.931 619.95 165.054C621.659 166.177 623.71 167.251 626.103 168.276C628.544 169.302 631.278 170.303 634.306 171.279C639.97 173.086 644.999 175.112 649.394 177.358C653.837 179.556 657.572 182.07 660.6 184.902C663.676 187.686 665.995 190.859 667.558 194.424C669.169 197.988 669.975 202.017 669.975 206.509C669.975 211.294 669.047 215.542 667.191 219.253C665.336 222.964 662.675 226.113 659.208 228.701C655.741 231.24 651.591 233.169 646.757 234.487C641.923 235.806 636.527 236.465 630.57 236.465C625.102 236.465 619.706 235.781 614.384 234.414C609.11 232.998 604.325 230.85 600.028 227.969C595.731 225.039 592.289 221.304 589.701 216.763C587.162 212.173 585.893 206.729 585.893 200.43H611.674C611.674 203.555 612.089 206.191 612.919 208.34C613.749 210.488 614.97 212.222 616.581 213.54C618.192 214.81 620.17 215.737 622.514 216.323C624.857 216.86 627.543 217.129 630.57 217.129C633.842 217.129 636.479 216.665 638.48 215.737C640.482 214.761 641.947 213.491 642.875 211.929C643.803 210.317 644.267 208.56 644.267 206.655ZM59.0615 332.655C59.0615 330.995 58.8174 329.506 58.3291 328.188C57.8408 326.82 56.9375 325.551 55.6191 324.379C54.3008 323.207 52.3965 322.035 49.9062 320.863C47.4648 319.643 44.2422 318.373 40.2383 317.055C35.5508 315.492 31.0342 313.734 26.6885 311.781C22.3428 309.779 18.4609 307.46 15.043 304.823C11.625 302.138 8.91504 299.013 6.91309 295.448C4.91113 291.835 3.91016 287.636 3.91016 282.851C3.91016 278.261 4.93555 274.135 6.98633 270.473C9.03711 266.762 11.8936 263.612 15.5557 261.024C19.2666 258.388 23.6123 256.386 28.5928 255.019C33.5732 253.603 39.0176 252.895 44.9258 252.895C52.7383 252.895 59.623 254.262 65.5801 256.996C71.5859 259.682 76.2734 263.515 79.6426 268.495C83.0605 273.427 84.7695 279.262 84.7695 286H59.208C59.208 283.314 58.6465 280.946 57.5234 278.896C56.4492 276.845 54.8135 275.233 52.6162 274.062C50.4189 272.89 47.6602 272.304 44.3398 272.304C41.1172 272.304 38.4072 272.792 36.21 273.769C34.0127 274.745 32.3525 276.063 31.2295 277.724C30.1064 279.335 29.5449 281.117 29.5449 283.07C29.5449 284.682 29.9844 286.146 30.8633 287.465C31.791 288.734 33.085 289.931 34.7451 291.054C36.4541 292.177 38.5049 293.251 40.8975 294.276C43.3389 295.302 46.0732 296.303 49.1006 297.279C54.7646 299.086 59.7939 301.112 64.1885 303.358C68.6318 305.556 72.3672 308.07 75.3945 310.902C78.4707 313.686 80.79 316.859 82.3525 320.424C83.9639 323.988 84.7695 328.017 84.7695 332.509C84.7695 337.294 83.8418 341.542 81.9863 345.253C80.1309 348.964 77.4697 352.113 74.0029 354.701C70.5361 357.24 66.3857 359.169 61.5518 360.487C56.7178 361.806 51.3223 362.465 45.3652 362.465C39.8965 362.465 34.501 361.781 29.1787 360.414C23.9053 358.998 19.1201 356.85 14.8232 353.969C10.5264 351.039 7.08398 347.304 4.49609 342.763C1.95703 338.173 0.6875 332.729 0.6875 326.43H26.4688C26.4688 329.555 26.8838 332.191 27.7139 334.34C28.5439 336.488 29.7646 338.222 31.376 339.54C32.9873 340.81 34.9648 341.737 37.3086 342.323C39.6523 342.86 42.3379 343.129 45.3652 343.129C48.6367 343.129 51.2734 342.665 53.2754 341.737C55.2773 340.761 56.7422 339.491 57.6699 337.929C58.5977 336.317 59.0615 334.56 59.0615 332.655ZM188.261 305.556V309.877C188.261 318.031 187.113 325.355 184.818 331.85C182.572 338.295 179.374 343.812 175.224 348.402C171.073 352.943 166.166 356.435 160.502 358.876C154.838 361.269 148.588 362.465 141.752 362.465C134.867 362.465 128.568 361.269 122.855 358.876C117.191 356.435 112.26 352.943 108.061 348.402C103.91 343.812 100.688 338.295 98.3926 331.85C96.1465 325.355 95.0234 318.031 95.0234 309.877V305.556C95.0234 297.401 96.1465 290.077 98.3926 283.583C100.688 277.089 103.886 271.571 107.987 267.03C112.138 262.44 117.045 258.949 122.709 256.557C128.422 254.115 134.721 252.895 141.605 252.895C148.441 252.895 154.691 254.115 160.355 256.557C166.068 258.949 171 262.44 175.15 267.03C179.301 271.571 182.523 277.089 184.818 283.583C187.113 290.077 188.261 297.401 188.261 305.556ZM162.187 309.877V305.409C162.187 300.136 161.723 295.497 160.795 291.493C159.916 287.44 158.598 284.047 156.84 281.312C155.082 278.578 152.909 276.527 150.321 275.16C147.782 273.744 144.877 273.036 141.605 273.036C138.188 273.036 135.209 273.744 132.67 275.16C130.131 276.527 128.007 278.578 126.298 281.312C124.589 284.047 123.295 287.44 122.416 291.493C121.586 295.497 121.171 300.136 121.171 305.409V309.877C121.171 315.102 121.586 319.74 122.416 323.793C123.295 327.797 124.589 331.19 126.298 333.974C128.056 336.757 130.204 338.856 132.743 340.272C135.331 341.688 138.334 342.396 141.752 342.396C145.023 342.396 147.929 341.688 150.468 340.272C153.007 338.856 155.131 336.757 156.84 333.974C158.598 331.19 159.916 327.797 160.795 323.793C161.723 319.74 162.187 315.102 162.187 309.877ZM272.05 341.225V361H218.144V341.225H272.05ZM227.299 254.359V361H201.591V254.359H227.299ZM338.993 254.359H364.701V324.013C364.701 332.313 362.968 339.345 359.501 345.106C356.034 350.819 351.176 355.141 344.926 358.07C338.676 361 331.327 362.465 322.88 362.465C314.53 362.465 307.182 361 300.834 358.07C294.535 355.141 289.604 350.819 286.039 345.106C282.523 339.345 280.766 332.313 280.766 324.013V254.359H306.547V324.013C306.547 328.407 307.182 331.996 308.451 334.779C309.721 337.514 311.576 339.516 314.018 340.785C316.459 342.055 319.413 342.689 322.88 342.689C326.396 342.689 329.35 342.055 331.742 340.785C334.135 339.516 335.941 337.514 337.162 334.779C338.383 331.996 338.993 328.407 338.993 324.013V254.359ZM441.532 324.892H467.167C466.825 332.313 464.823 338.856 461.161 344.521C457.499 350.185 452.421 354.604 445.927 357.777C439.481 360.902 431.864 362.465 423.075 362.465C415.946 362.465 409.574 361.269 403.959 358.876C398.393 356.483 393.656 353.041 389.75 348.549C385.893 344.057 382.938 338.612 380.888 332.216C378.886 325.819 377.885 318.617 377.885 310.609V304.823C377.885 296.815 378.935 289.613 381.034 283.217C383.183 276.771 386.21 271.303 390.116 266.811C394.071 262.27 398.808 258.803 404.325 256.41C409.843 254.018 415.971 252.821 422.709 252.821C431.986 252.821 439.823 254.481 446.22 257.802C452.616 261.122 457.572 265.688 461.088 271.498C464.604 277.26 466.679 283.827 467.313 291.2H441.679C441.581 287.196 440.897 283.852 439.628 281.166C438.358 278.432 436.356 276.381 433.622 275.014C430.888 273.646 427.25 272.963 422.709 272.963C419.535 272.963 416.776 273.549 414.433 274.721C412.089 275.893 410.136 277.748 408.573 280.287C407.011 282.826 405.839 286.122 405.058 290.175C404.325 294.179 403.959 299.013 403.959 304.677V310.609C403.959 316.273 404.301 321.107 404.984 325.111C405.668 329.115 406.767 332.387 408.28 334.926C409.794 337.465 411.747 339.345 414.14 340.565C416.581 341.737 419.56 342.323 423.075 342.323C426.981 342.323 430.277 341.713 432.963 340.492C435.648 339.223 437.724 337.318 439.188 334.779C440.653 332.191 441.435 328.896 441.532 324.892ZM506.645 254.359V361H481.01V254.359H506.645ZM614.97 305.556V309.877C614.97 318.031 613.822 325.355 611.527 331.85C609.281 338.295 606.083 343.812 601.933 348.402C597.782 352.943 592.875 356.435 587.211 358.876C581.547 361.269 575.297 362.465 568.461 362.465C561.576 362.465 555.277 361.269 549.564 358.876C543.9 356.435 538.969 352.943 534.77 348.402C530.619 343.812 527.396 338.295 525.102 331.85C522.855 325.355 521.732 318.031 521.732 309.877V305.556C521.732 297.401 522.855 290.077 525.102 283.583C527.396 277.089 530.595 271.571 534.696 267.03C538.847 262.44 543.754 258.949 549.418 256.557C555.131 254.115 561.43 252.895 568.314 252.895C575.15 252.895 581.4 254.115 587.064 256.557C592.777 258.949 597.709 262.44 601.859 267.03C606.01 271.571 609.232 277.089 611.527 283.583C613.822 290.077 614.97 297.401 614.97 305.556ZM588.896 309.877V305.409C588.896 300.136 588.432 295.497 587.504 291.493C586.625 287.44 585.307 284.047 583.549 281.312C581.791 278.578 579.618 276.527 577.03 275.16C574.491 273.744 571.586 273.036 568.314 273.036C564.896 273.036 561.918 273.744 559.379 275.16C556.84 276.527 554.716 278.578 553.007 281.312C551.298 284.047 550.004 287.44 549.125 291.493C548.295 295.497 547.88 300.136 547.88 305.409V309.877C547.88 315.102 548.295 319.74 549.125 323.793C550.004 327.797 551.298 331.19 553.007 333.974C554.765 336.757 556.913 338.856 559.452 340.272C562.04 341.688 565.043 342.396 568.461 342.396C571.732 342.396 574.638 341.688 577.177 340.272C579.716 338.856 581.84 336.757 583.549 333.974C585.307 331.19 586.625 327.797 587.504 323.793C588.432 319.74 588.896 315.102 588.896 309.877ZM717.362 254.359V361H691.728L654.008 294.643V361H628.3V254.359H654.008L691.728 320.717V254.359H717.362ZM807.011 341.225V361H750.175V341.225H807.011ZM759.33 254.359V361H733.622V254.359H759.33ZM799.687 296.693V315.81H750.175V296.693H799.687ZM807.23 254.359V274.208H750.175V254.359H807.23ZM872.489 332.655C872.489 330.995 872.245 329.506 871.757 328.188C871.269 326.82 870.365 325.551 869.047 324.379C867.729 323.207 865.824 322.035 863.334 320.863C860.893 319.643 857.67 318.373 853.666 317.055C848.979 315.492 844.462 313.734 840.116 311.781C835.771 309.779 831.889 307.46 828.471 304.823C825.053 302.138 822.343 299.013 820.341 295.448C818.339 291.835 817.338 287.636 817.338 282.851C817.338 278.261 818.363 274.135 820.414 270.473C822.465 266.762 825.321 263.612 828.983 261.024C832.694 258.388 837.04 256.386 842.021 255.019C847.001 253.603 852.445 252.895 858.354 252.895C866.166 252.895 873.051 254.262 879.008 256.996C885.014 259.682 889.701 263.515 893.07 268.495C896.488 273.427 898.197 279.262 898.197 286H872.636C872.636 283.314 872.074 280.946 870.951 278.896C869.877 276.845 868.241 275.233 866.044 274.062C863.847 272.89 861.088 272.304 857.768 272.304C854.545 272.304 851.835 272.792 849.638 273.769C847.44 274.745 845.78 276.063 844.657 277.724C843.534 279.335 842.973 281.117 842.973 283.07C842.973 284.682 843.412 286.146 844.291 287.465C845.219 288.734 846.513 289.931 848.173 291.054C849.882 292.177 851.933 293.251 854.325 294.276C856.767 295.302 859.501 296.303 862.528 297.279C868.192 299.086 873.222 301.112 877.616 303.358C882.06 305.556 885.795 308.07 888.822 310.902C891.898 313.686 894.218 316.859 895.78 320.424C897.392 323.988 898.197 328.017 898.197 332.509C898.197 337.294 897.27 341.542 895.414 345.253C893.559 348.964 890.897 352.113 887.431 354.701C883.964 357.24 879.813 359.169 874.979 360.487C870.146 361.806 864.75 362.465 858.793 362.465C853.324 362.465 847.929 361.781 842.606 360.414C837.333 358.998 832.548 356.85 828.251 353.969C823.954 351.039 820.512 347.304 817.924 342.763C815.385 338.173 814.115 332.729 814.115 326.43H839.896C839.896 329.555 840.312 332.191 841.142 334.34C841.972 336.488 843.192 338.222 844.804 339.54C846.415 340.81 848.393 341.737 850.736 342.323C853.08 342.86 855.766 343.129 858.793 343.129C862.064 343.129 864.701 342.665 866.703 341.737C868.705 340.761 870.17 339.491 871.098 337.929C872.025 336.317 872.489 334.56 872.489 332.655Z" fill="white"/>
</svg>
