<svg width="97" height="75" viewBox="0 0 97 75" fill="none" xmlns="http://www.w3.org/2000/svg">
<g clip-path="url(#clip0_9_2252)">
<path d="M40.4087 15.625C39.6149 15.625 38.8389 15.8083 38.1788 16.1517C37.5188 16.495 37.0043 16.9831 36.7005 17.5541C36.3968 18.1251 36.3173 18.7535 36.4721 19.3597C36.627 19.9658 37.0093 20.5227 37.5706 20.9597C38.1319 21.3967 38.8471 21.6944 39.6257 21.815C40.4042 21.9355 41.2113 21.8736 41.9447 21.6371C42.6781 21.4006 43.3049 21.0001 43.7459 20.4862C44.187 19.9723 44.4224 19.3681 44.4224 18.75C44.4224 17.9212 43.9995 17.1263 43.2468 16.5403C42.4941 15.9542 41.4732 15.625 40.4087 15.625ZM24.354 15.625C23.5602 15.625 22.7842 15.8083 22.1241 16.1517C21.4641 16.495 20.9496 16.9831 20.6459 17.5541C20.3421 18.1251 20.2626 18.7535 20.4175 19.3597C20.5723 19.9658 20.9546 20.5227 21.5159 20.9597C22.0772 21.3967 22.7924 21.6944 23.571 21.815C24.3496 21.9355 25.1566 21.8736 25.89 21.6371C26.6234 21.4006 27.2502 21.0001 27.6912 20.4862C28.1323 19.9723 28.3677 19.3681 28.3677 18.75C28.3677 17.9212 27.9448 17.1263 27.1921 16.5403C26.4394 15.9542 25.4185 15.625 24.354 15.625ZM56.4634 15.625C55.6695 15.625 54.8935 15.8083 54.2335 16.1517C53.5735 16.495 53.059 16.9831 52.7552 17.5541C52.4514 18.1251 52.372 18.7535 52.5268 19.3597C52.6817 19.9658 53.064 20.5227 53.6253 20.9597C54.1866 21.3967 54.9018 21.6944 55.6804 21.815C56.4589 21.9355 57.2659 21.8736 57.9993 21.6371C58.7327 21.4006 59.3596 21.0001 59.8006 20.4862C60.2417 19.9723 60.4771 19.3681 60.4771 18.75C60.4771 17.9212 60.0542 17.1263 59.3015 16.5403C58.5488 15.9542 57.5279 15.625 56.4634 15.625ZM80.5454 3.125H16.3267C13.1332 3.125 10.0705 4.11272 7.81238 5.87087C5.55425 7.62903 4.28564 10.0136 4.28564 12.5V62.5C4.28564 64.9864 5.55425 67.371 7.81238 69.1291C10.0705 70.8873 13.1332 71.875 16.3267 71.875H80.5454C83.7389 71.875 86.8016 70.8873 89.0597 69.1291C91.3178 67.371 92.5864 64.9864 92.5864 62.5V12.5C92.5864 10.0136 91.3178 7.62903 89.0597 5.87087C86.8016 4.11272 83.7389 3.125 80.5454 3.125ZM84.5591 62.5C84.5591 63.3288 84.1362 64.1237 83.3835 64.7097C82.6308 65.2958 81.6099 65.625 80.5454 65.625H16.3267C15.2622 65.625 14.2413 65.2958 13.4886 64.7097C12.7359 64.1237 12.313 63.3288 12.313 62.5V34.375H84.5591V62.5ZM84.5591 28.125H12.313V12.5C12.313 11.6712 12.7359 10.8763 13.4886 10.2903C14.2413 9.70424 15.2622 9.375 16.3267 9.375H80.5454C81.6099 9.375 82.6308 9.70424 83.3835 10.2903C84.1362 10.8763 84.5591 11.6712 84.5591 12.5V28.125Z" fill="#36C0DE"/>
<path d="M40.4087 15.625C39.6149 15.625 38.8389 15.8083 38.1788 16.1517C37.5188 16.495 37.0043 16.9831 36.7005 17.5541C36.3968 18.1251 36.3173 18.7535 36.4721 19.3597C36.627 19.9658 37.0093 20.5227 37.5706 20.9597C38.1319 21.3967 38.8471 21.6944 39.6257 21.815C40.4042 21.9355 41.2113 21.8736 41.9447 21.6371C42.6781 21.4006 43.3049 21.0001 43.7459 20.4862C44.187 19.9723 44.4224 19.3681 44.4224 18.75C44.4224 17.9212 43.9995 17.1263 43.2468 16.5403C42.4941 15.9542 41.4732 15.625 40.4087 15.625ZM24.354 15.625C23.5602 15.625 22.7842 15.8083 22.1241 16.1517C21.4641 16.495 20.9496 16.9831 20.6459 17.5541C20.3421 18.1251 20.2626 18.7535 20.4175 19.3597C20.5723 19.9658 20.9546 20.5227 21.5159 20.9597C22.0772 21.3967 22.7924 21.6944 23.571 21.815C24.3496 21.9355 25.1566 21.8736 25.89 21.6371C26.6234 21.4006 27.2502 21.0001 27.6912 20.4862C28.1323 19.9723 28.3677 19.3681 28.3677 18.75C28.3677 17.9212 27.9448 17.1263 27.1921 16.5403C26.4394 15.9542 25.4185 15.625 24.354 15.625ZM56.4634 15.625C55.6695 15.625 54.8935 15.8083 54.2335 16.1517C53.5735 16.495 53.059 16.9831 52.7552 17.5541C52.4514 18.1251 52.372 18.7535 52.5268 19.3597C52.6817 19.9658 53.064 20.5227 53.6253 20.9597C54.1866 21.3967 54.9018 21.6944 55.6804 21.815C56.4589 21.9355 57.2659 21.8736 57.9993 21.6371C58.7327 21.4006 59.3596 21.0001 59.8006 20.4862C60.2417 19.9723 60.4771 19.3681 60.4771 18.75C60.4771 17.9212 60.0542 17.1263 59.3015 16.5403C58.5488 15.9542 57.5279 15.625 56.4634 15.625ZM80.5454 3.125H16.3267C13.1332 3.125 10.0705 4.11272 7.81238 5.87087C5.55425 7.62903 4.28564 10.0136 4.28564 12.5V62.5C4.28564 64.9864 5.55425 67.371 7.81238 69.1291C10.0705 70.8873 13.1332 71.875 16.3267 71.875H80.5454C83.7389 71.875 86.8016 70.8873 89.0597 69.1291C91.3178 67.371 92.5864 64.9864 92.5864 62.5V12.5C92.5864 10.0136 91.3178 7.62903 89.0597 5.87087C86.8016 4.11272 83.7389 3.125 80.5454 3.125V3.125ZM84.5591 62.5C84.5591 63.3288 84.1362 64.1237 83.3835 64.7097C82.6308 65.2958 81.6099 65.625 80.5454 65.625H16.3267C15.2622 65.625 14.2413 65.2958 13.4886 64.7097C12.7359 64.1237 12.313 63.3288 12.313 62.5V34.375H84.5591V62.5ZM84.5591 28.125H12.313V12.5C12.313 11.6712 12.7359 10.8763 13.4886 10.2903C14.2413 9.70424 15.2622 9.375 16.3267 9.375H80.5454C81.6099 9.375 82.6308 9.70424 83.3835 10.2903C84.1362 10.8763 84.5591 11.6712 84.5591 12.5V28.125Z" fill="white"/>
</g>
<defs>
<clipPath id="clip0_9_2252">
<rect width="96.3281" height="75" fill="white" transform="translate(0.271973)"/>
</clipPath>
</defs>
</svg>
