<svg width="51" height="39" viewBox="0 0 51 39" fill="none" xmlns="http://www.w3.org/2000/svg">
<path d="M31.5537 14.2837L22.6 21.2712L19.1562 18.59C18.9691 18.4199 18.7389 18.2817 18.4799 18.1842C18.221 18.0867 17.939 18.0318 17.6515 18.0232C17.3641 18.0146 17.0775 18.0523 16.8096 18.134C16.5418 18.2157 16.2986 18.3396 16.0952 18.4979C15.8918 18.6563 15.7326 18.8457 15.6277 19.0542C15.5228 19.2628 15.4743 19.4859 15.4854 19.7097C15.4965 19.9335 15.5669 20.1531 15.6922 20.3547C15.8175 20.5563 15.9949 20.7356 16.2134 20.8812L21.1181 24.7162C21.3131 24.8669 21.5444 24.986 21.7987 25.0669C22.053 25.1477 22.3253 25.1887 22.6 25.1875C23.1475 25.1857 23.6722 25.0165 24.0609 24.7162L34.4965 16.5912C34.6921 16.4402 34.8474 16.2605 34.9533 16.0624C35.0593 15.8644 35.1138 15.652 35.1138 15.4375C35.1138 15.223 35.0593 15.0106 34.9533 14.8126C34.8474 14.6145 34.6921 14.4348 34.4965 14.2837C34.1054 13.9811 33.5765 13.8112 33.0251 13.8112C32.4737 13.8112 31.9447 13.9811 31.5537 14.2837ZM25.8767 3.25C21.7488 3.25 17.7136 4.20305 14.2814 5.98862C10.8491 7.77419 8.17403 10.3121 6.59434 13.2814C5.01466 16.2507 4.60134 19.518 5.40666 22.6702C6.21197 25.8224 8.19975 28.7179 11.1186 30.9905C14.0375 33.2631 17.7564 34.8108 21.805 35.4378C25.8536 36.0648 30.0501 35.743 33.8637 34.513C37.6774 33.2831 40.9371 31.2003 43.2304 28.528C45.5237 25.8557 46.7478 22.7139 46.7478 19.5C46.7478 17.366 46.208 15.2529 45.1591 13.2814C44.1102 11.3099 42.5729 9.51847 40.6348 8.00951C38.6968 6.50056 36.3959 5.3036 33.8637 4.48696C31.3315 3.67032 28.6176 3.25 25.8767 3.25ZM25.8767 32.5C22.5744 32.5 19.3462 31.7376 16.6004 30.3091C13.8546 28.8806 11.7146 26.8503 10.4508 24.4749C9.18707 22.0994 8.85642 19.4856 9.50067 16.9638C10.1449 14.4421 11.7351 12.1257 14.0702 10.3076C16.4053 8.48953 19.3804 7.2514 22.6193 6.74979C25.8582 6.24818 29.2154 6.50563 32.2663 7.48957C35.3173 8.47351 37.925 10.1397 39.7597 12.2776C41.5943 14.4154 42.5736 16.9288 42.5736 19.5C42.5736 22.9478 40.8145 26.2544 37.6832 28.6924C34.5519 31.1304 30.305 32.5 25.8767 32.5Z" fill="white"/>
</svg>
