<svg width="648" height="181" viewBox="0 0 648 181" fill="none" xmlns="http://www.w3.org/2000/svg">
<path d="M173.307 64.8331V79.335H131.628V64.8331H173.307ZM138.342 1.1319V79.335H119.489V1.1319H138.342ZM167.936 32.1768V46.1954H131.628V32.1768H167.936ZM173.469 1.1319V15.6876H131.628V1.1319H173.469ZM224.655 66.4444L246.462 83.7393L234.753 93.6221L213.322 76.3272L224.655 66.4444ZM247.375 38.6758V41.8448C247.375 47.8246 246.533 53.1957 244.85 57.9581C243.203 62.6846 240.84 66.7309 237.761 70.0967C234.717 73.4268 231.118 75.987 226.965 77.7774C222.811 79.532 218.228 80.4092 213.215 80.4092C208.166 80.4092 203.547 79.532 199.357 77.7774C195.204 75.987 191.587 73.4268 188.508 70.0967C185.464 66.7309 183.101 62.6846 181.418 57.9581C179.771 53.1957 178.947 47.8246 178.947 41.8448V38.6758C178.947 32.696 179.771 27.3249 181.418 22.5626C183.101 17.8002 185.446 13.754 188.454 10.4239C191.498 7.05801 195.096 4.49779 199.25 2.74323C203.439 0.952868 208.058 0.0576859 213.107 0.0576859C218.12 0.0576859 222.704 0.952868 226.857 2.74323C231.047 4.49779 234.663 7.05801 237.707 10.4239C240.786 13.754 243.167 17.8002 244.85 22.5626C246.533 27.3249 247.375 32.696 247.375 38.6758ZM228.2 41.8448V38.5684C228.2 34.7012 227.86 31.2995 227.18 28.3633C226.535 25.3913 225.568 22.9027 224.279 20.8975C222.99 18.8923 221.397 17.3884 219.499 16.3858C217.637 15.3474 215.506 14.8282 213.107 14.8282C210.601 14.8282 208.416 15.3474 206.555 16.3858C204.693 17.3884 203.135 18.8923 201.882 20.8975C200.628 22.9027 199.68 25.3913 199.035 28.3633C198.426 31.2995 198.122 34.7012 198.122 38.5684V41.8448C198.122 45.6762 198.426 49.0779 199.035 52.0499C199.68 54.9861 200.628 57.4747 201.882 59.5157C203.171 61.5567 204.746 63.0964 206.608 64.1348C208.506 65.1732 210.708 65.6925 213.215 65.6925C215.614 65.6925 217.744 65.1732 219.606 64.1348C221.468 63.0964 223.026 61.5567 224.279 59.5157C225.568 57.4747 226.535 54.9861 227.18 52.0499C227.86 49.0779 228.2 45.6762 228.2 41.8448ZM299.421 1.1319H318.273V52.211C318.273 58.2982 317.002 63.4545 314.46 67.6798C311.917 71.8692 308.355 75.0382 303.771 77.1866C299.188 79.335 293.799 80.4092 287.604 80.4092C281.481 80.4092 276.092 79.335 271.437 77.1866C266.818 75.0382 263.202 71.8692 260.588 67.6798C258.01 63.4545 256.721 58.2982 256.721 52.211V1.1319H275.627V52.211C275.627 55.4337 276.092 58.0655 277.023 60.1065C277.954 62.1117 279.315 63.5798 281.105 64.5108C282.896 65.4418 285.062 65.9073 287.604 65.9073C290.182 65.9073 292.349 65.4418 294.103 64.5108C295.858 63.5798 297.183 62.1117 298.078 60.1065C298.973 58.0655 299.421 55.4337 299.421 52.211V1.1319ZM350.178 1.1319V79.335H331.379V1.1319H350.178ZM394.65 52.8018H375.207V38.2462H394.65C397.3 38.2462 399.448 37.7986 401.096 36.9034C402.743 36.0082 403.942 34.7729 404.694 33.1973C405.482 31.586 405.876 29.7777 405.876 27.7725C405.876 25.6241 405.482 23.6368 404.694 21.8106C403.942 19.9844 402.743 18.5163 401.096 17.4063C399.448 16.2605 397.3 15.6876 394.65 15.6876H382.297V79.335H363.444V1.1319H394.65C400.916 1.1319 406.305 2.27774 410.817 4.5694C415.365 6.86107 418.856 10.0121 421.291 14.0225C423.726 17.9971 424.943 22.5447 424.943 27.6651C424.943 32.7139 423.726 37.1182 421.291 40.878C418.856 44.6378 415.365 47.574 410.817 49.6866C406.305 51.7634 400.916 52.8018 394.65 52.8018ZM501.266 38.6758V41.8448C501.266 47.8246 500.425 53.1957 498.742 57.9581C497.095 62.6846 494.749 66.7309 491.706 70.0967C488.662 73.4268 485.064 75.987 480.91 77.7774C476.756 79.532 472.173 80.4092 467.16 80.4092C462.111 80.4092 457.492 79.532 453.303 77.7774C449.149 75.987 445.532 73.4268 442.453 70.0967C439.409 66.7309 437.046 62.6846 435.363 57.9581C433.716 53.1957 432.892 47.8246 432.892 41.8448V38.6758C432.892 32.696 433.716 27.3249 435.363 22.5626C437.046 17.8002 439.391 13.754 442.399 10.4239C445.443 7.05801 449.041 4.49779 453.195 2.74323C457.385 0.952868 462.004 0.0576859 467.053 0.0576859C472.066 0.0576859 476.649 0.952868 480.803 2.74323C484.992 4.49779 488.609 7.05801 491.652 10.4239C494.696 13.754 497.059 17.8002 498.742 22.5626C500.425 27.3249 501.266 32.696 501.266 38.6758ZM482.145 41.8448V38.5684C482.145 34.7012 481.805 31.2995 481.125 28.3633C480.48 25.3913 479.513 22.9027 478.224 20.8975C476.935 18.8923 475.342 17.3884 473.444 16.3858C471.582 15.3474 469.452 14.8282 467.053 14.8282C464.546 14.8282 462.362 15.3474 460.5 16.3858C458.638 17.3884 457.08 18.8923 455.827 20.8975C454.574 22.9027 453.625 25.3913 452.98 28.3633C452.372 31.2995 452.067 34.7012 452.067 38.5684V41.8448C452.067 45.6762 452.372 49.0779 452.98 52.0499C453.625 54.9861 454.574 57.4747 455.827 59.5157C457.116 61.5567 458.692 63.0964 460.554 64.1348C462.451 65.1732 464.653 65.6925 467.16 65.6925C469.559 65.6925 471.69 65.1732 473.552 64.1348C475.414 63.0964 476.971 61.5567 478.224 59.5157C479.513 57.4747 480.48 54.9861 481.125 52.0499C481.805 49.0779 482.145 45.6762 482.145 41.8448ZM25.9246 179.335H8.57599L8.68341 164.833H25.9246C29.5054 164.833 32.5311 163.974 35.0018 162.255C37.5083 160.536 39.4061 157.976 40.6951 154.574C42.02 151.137 42.6824 146.912 42.6824 141.899V138.515C42.6824 134.755 42.3065 131.461 41.5545 128.632C40.8384 125.767 39.7641 123.386 38.3318 121.488C36.8996 119.555 35.1092 118.105 32.9608 117.138C30.8481 116.171 28.4132 115.688 25.6561 115.688H8.25372V101.132H25.6561C30.9555 101.132 35.8074 102.045 40.2117 103.871C44.6518 105.662 48.4832 108.24 51.7059 111.606C54.9643 114.936 57.4708 118.892 59.2254 123.476C61.0158 128.023 61.9109 133.072 61.9109 138.622V141.899C61.9109 147.413 61.0158 152.462 59.2254 157.045C57.4708 161.628 54.9822 165.585 51.7596 168.915C48.5369 172.245 44.7234 174.823 40.3192 176.649C35.9507 178.44 31.1525 179.335 25.9246 179.335ZM19.3719 101.132V179.335H0.519348V101.132H19.3719ZM125.558 164.833V179.335H83.8787V164.833H125.558ZM90.5926 101.132V179.335H71.7401V101.132H90.5926ZM120.187 132.177V146.195H83.8787V132.177H120.187ZM125.72 101.132V115.688H83.8787V101.132H125.72ZM195.329 101.132V179.335H176.476V101.132H195.329ZM218.854 101.132V115.688H153.488V101.132H218.854ZM226.857 101.132H257.634C263.649 101.132 268.877 102.027 273.317 103.817C277.757 105.608 281.177 108.258 283.576 111.767C286.011 115.276 287.228 119.608 287.228 124.765C287.228 129.241 286.53 132.982 285.134 135.99C283.737 138.998 281.786 141.487 279.279 143.456C276.808 145.39 273.926 146.983 270.632 148.236L264.455 151.728H238.62L238.513 137.172H257.634C260.033 137.172 262.02 136.742 263.596 135.883C265.171 135.024 266.353 133.806 267.14 132.231C267.964 130.619 268.376 128.704 268.376 126.483C268.376 124.228 267.964 122.294 267.14 120.683C266.317 119.071 265.099 117.836 263.488 116.977C261.913 116.117 259.961 115.688 257.634 115.688H245.71V179.335H226.857V101.132ZM269.665 179.335L252.37 144.745L272.35 144.638L289.86 178.529V179.335H269.665ZM331.755 117.567L312.687 179.335H292.438L321.174 101.132H334.011L331.755 117.567ZM347.546 179.335L328.425 117.567L325.954 101.132H338.952L367.848 179.335H347.546ZM346.794 150.17V164.726H306.672V150.17H346.794ZM405.5 146.088H385.358L385.251 133.734H401.579C404.515 133.734 406.86 133.412 408.615 132.768C410.37 132.087 411.641 131.103 412.429 129.814C413.252 128.524 413.664 126.913 413.664 124.98C413.664 122.76 413.252 120.969 412.429 119.608C411.605 118.248 410.298 117.263 408.508 116.654C406.753 116.01 404.479 115.688 401.686 115.688H392.448V179.335H373.596V101.132H401.686C406.52 101.132 410.835 101.579 414.631 102.475C418.426 103.334 421.649 104.659 424.299 106.449C426.984 108.24 429.025 110.496 430.422 113.217C431.818 115.902 432.516 119.071 432.516 122.724C432.516 125.911 431.836 128.9 430.475 131.693C429.115 134.486 426.841 136.76 423.654 138.515C420.503 140.233 416.188 141.129 410.71 141.2L405.5 146.088ZM404.748 179.335H380.793L387.238 164.833H404.748C407.326 164.833 409.385 164.439 410.925 163.651C412.5 162.828 413.628 161.754 414.308 160.429C415.025 159.068 415.383 157.564 415.383 155.917C415.383 153.912 415.042 152.175 414.362 150.707C413.718 149.239 412.679 148.111 411.247 147.323C409.815 146.5 407.899 146.088 405.5 146.088H389.655L389.763 133.734H408.722L413.127 138.676C418.355 138.461 422.49 139.195 425.534 140.878C428.613 142.561 430.816 144.781 432.14 147.538C433.465 150.295 434.128 153.178 434.128 156.186C434.128 161.306 433.018 165.585 430.798 169.023C428.613 172.46 425.337 175.038 420.969 176.757C416.6 178.476 411.193 179.335 404.748 179.335ZM477.741 117.567L458.674 179.335H438.425L467.16 101.132H479.997L477.741 117.567ZM493.532 179.335L474.411 117.567L471.94 101.132H484.938L513.835 179.335H493.532ZM492.78 150.17V164.726H452.658V150.17H492.78ZM550.68 154.789V101.132H569.479V154.789C569.479 160.017 568.28 164.547 565.881 168.378C563.517 172.209 560.295 175.181 556.213 177.294C552.166 179.371 547.619 180.409 542.57 180.409C537.342 180.409 532.687 179.532 528.605 177.777C524.559 176.023 521.372 173.319 519.045 169.667C516.753 166.015 515.607 161.36 515.607 155.702H534.513C534.513 158.352 534.818 160.429 535.427 161.933C536.035 163.401 536.93 164.439 538.112 165.048C539.33 165.621 540.816 165.907 542.57 165.907C544.289 165.907 545.739 165.478 546.921 164.618C548.138 163.723 549.069 162.452 549.714 160.805C550.358 159.122 550.68 157.117 550.68 154.789ZM647.629 138.676V141.845C647.629 147.825 646.787 153.196 645.104 157.958C643.457 162.685 641.112 166.731 638.068 170.097C635.025 173.427 631.426 175.987 627.272 177.777C623.119 179.532 618.535 180.409 613.522 180.409C608.473 180.409 603.854 179.532 599.665 177.777C595.511 175.987 591.895 173.427 588.815 170.097C585.772 166.731 583.408 162.685 581.725 157.958C580.078 153.196 579.255 147.825 579.255 141.845V138.676C579.255 132.696 580.078 127.325 581.725 122.563C583.408 117.8 585.754 113.754 588.762 110.424C591.805 107.058 595.404 104.498 599.557 102.743C603.747 100.953 608.366 100.058 613.415 100.058C618.428 100.058 623.011 100.953 627.165 102.743C631.354 104.498 634.971 107.058 638.014 110.424C641.058 113.754 643.421 117.8 645.104 122.563C646.787 127.325 647.629 132.696 647.629 138.676ZM628.508 141.845V138.568C628.508 134.701 628.167 131.3 627.487 128.363C626.843 125.391 625.876 122.903 624.587 120.898C623.298 118.892 621.704 117.388 619.806 116.386C617.944 115.347 615.814 114.828 613.415 114.828C610.908 114.828 608.724 115.347 606.862 116.386C605 117.388 603.443 118.892 602.189 120.898C600.936 122.903 599.987 125.391 599.343 128.363C598.734 131.3 598.43 134.701 598.43 138.568V141.845C598.43 145.676 598.734 149.078 599.343 152.05C599.987 154.986 600.936 157.475 602.189 159.516C603.478 161.557 605.054 163.096 606.916 164.135C608.814 165.173 611.016 165.692 613.522 165.692C615.921 165.692 618.052 165.173 619.914 164.135C621.776 163.096 623.333 161.557 624.587 159.516C625.876 157.475 626.843 154.986 627.487 152.05C628.167 149.078 628.508 145.676 628.508 141.845Z" fill="white"/>
</svg>
