<svg width="687" height="985" viewBox="0 0 687 985" fill="none" xmlns="http://www.w3.org/2000/svg">
<rect width="687" height="985" fill="white"/>
<path d="M104.795 423.906V495H87.7051L62.5586 450.762V495H45.4199V423.906H62.5586L87.7051 468.145V423.906H104.795ZM154.209 423.906H171.348V470.342C171.348 475.876 170.192 480.563 167.881 484.404C165.57 488.213 162.331 491.094 158.164 493.047C153.997 495 149.098 495.977 143.467 495.977C137.9 495.977 133.001 495 128.77 493.047C124.57 491.094 121.283 488.213 118.906 484.404C116.562 480.563 115.391 475.876 115.391 470.342V423.906H132.578V470.342C132.578 473.271 133.001 475.664 133.848 477.52C134.694 479.342 135.931 480.677 137.559 481.523C139.186 482.37 141.156 482.793 143.467 482.793C145.811 482.793 147.78 482.37 149.375 481.523C150.97 480.677 152.174 479.342 152.988 477.52C153.802 475.664 154.209 473.271 154.209 470.342V423.906ZM231.064 481.816V495H193.174V481.816H231.064ZM199.277 423.906V495H182.139V423.906H199.277ZM226.182 452.129V464.873H193.174V452.129H226.182ZM231.211 423.906V437.139H193.174V423.906H231.211ZM274.717 476.104C274.717 474.997 274.554 474.004 274.229 473.125C273.903 472.214 273.301 471.367 272.422 470.586C271.543 469.805 270.273 469.023 268.613 468.242C266.986 467.428 264.837 466.582 262.168 465.703C259.043 464.661 256.032 463.49 253.135 462.188C250.238 460.853 247.65 459.307 245.371 457.549C243.092 455.758 241.286 453.675 239.951 451.299C238.617 448.89 237.949 446.09 237.949 442.9C237.949 439.84 238.633 437.09 240 434.648C241.367 432.174 243.271 430.075 245.713 428.35C248.187 426.592 251.084 425.257 254.404 424.346C257.725 423.402 261.354 422.93 265.293 422.93C270.501 422.93 275.091 423.841 279.062 425.664C283.066 427.454 286.191 430.01 288.438 433.33C290.716 436.618 291.855 440.508 291.855 445H274.814C274.814 443.21 274.44 441.631 273.691 440.264C272.975 438.896 271.885 437.822 270.42 437.041C268.955 436.26 267.116 435.869 264.902 435.869C262.754 435.869 260.947 436.195 259.482 436.846C258.018 437.497 256.911 438.376 256.162 439.482C255.413 440.557 255.039 441.745 255.039 443.047C255.039 444.121 255.332 445.098 255.918 445.977C256.536 446.823 257.399 447.62 258.506 448.369C259.645 449.118 261.012 449.834 262.607 450.518C264.235 451.201 266.058 451.868 268.076 452.52C271.852 453.724 275.205 455.075 278.135 456.572C281.097 458.037 283.587 459.714 285.605 461.602C287.656 463.457 289.202 465.573 290.244 467.949C291.318 470.326 291.855 473.011 291.855 476.006C291.855 479.196 291.237 482.028 290 484.502C288.763 486.976 286.989 489.076 284.678 490.801C282.367 492.493 279.6 493.779 276.377 494.658C273.154 495.537 269.557 495.977 265.586 495.977C261.94 495.977 258.343 495.521 254.795 494.609C251.279 493.665 248.089 492.233 245.225 490.312C242.36 488.359 240.065 485.869 238.34 482.842C236.647 479.782 235.801 476.152 235.801 471.953H252.988C252.988 474.036 253.265 475.794 253.818 477.227C254.372 478.659 255.186 479.814 256.26 480.693C257.334 481.54 258.652 482.158 260.215 482.549C261.777 482.907 263.568 483.086 265.586 483.086C267.767 483.086 269.525 482.777 270.859 482.158C272.194 481.507 273.171 480.661 273.789 479.619C274.408 478.545 274.717 477.373 274.717 476.104ZM335.117 423.906V495H317.979V423.906H335.117ZM356.504 423.906V437.139H297.08V423.906H356.504ZM363.779 423.906H391.758C397.227 423.906 401.979 424.72 406.016 426.348C410.052 427.975 413.161 430.384 415.342 433.574C417.555 436.764 418.662 440.703 418.662 445.391C418.662 449.46 418.027 452.861 416.758 455.596C415.488 458.33 413.714 460.592 411.436 462.383C409.189 464.141 406.569 465.589 403.574 466.729L397.959 469.902H374.473L374.375 456.67H391.758C393.939 456.67 395.745 456.279 397.178 455.498C398.61 454.717 399.684 453.61 400.4 452.178C401.149 450.713 401.523 448.971 401.523 446.953C401.523 444.902 401.149 443.145 400.4 441.68C399.652 440.215 398.545 439.092 397.08 438.311C395.648 437.529 393.874 437.139 391.758 437.139H380.918V495H363.779V423.906ZM402.695 495L386.973 463.555L405.137 463.457L421.055 494.268V495H402.695ZM459.141 438.848L441.807 495H423.398L449.521 423.906H461.191L459.141 438.848ZM473.496 495L456.113 438.848L453.867 423.906H465.684L491.953 495H473.496ZM472.812 468.486V481.719H436.338V468.486H472.812ZM533.799 476.104C533.799 474.997 533.636 474.004 533.311 473.125C532.985 472.214 532.383 471.367 531.504 470.586C530.625 469.805 529.355 469.023 527.695 468.242C526.068 467.428 523.919 466.582 521.25 465.703C518.125 464.661 515.114 463.49 512.217 462.188C509.32 460.853 506.732 459.307 504.453 457.549C502.174 455.758 500.368 453.675 499.033 451.299C497.699 448.89 497.031 446.09 497.031 442.9C497.031 439.84 497.715 437.09 499.082 434.648C500.449 432.174 502.354 430.075 504.795 428.35C507.269 426.592 510.166 425.257 513.486 424.346C516.807 423.402 520.436 422.93 524.375 422.93C529.583 422.93 534.173 423.841 538.145 425.664C542.148 427.454 545.273 430.01 547.52 433.33C549.798 436.618 550.938 440.508 550.938 445H533.896C533.896 443.21 533.522 441.631 532.773 440.264C532.057 438.896 530.967 437.822 529.502 437.041C528.037 436.26 526.198 435.869 523.984 435.869C521.836 435.869 520.029 436.195 518.564 436.846C517.1 437.497 515.993 438.376 515.244 439.482C514.495 440.557 514.121 441.745 514.121 443.047C514.121 444.121 514.414 445.098 515 445.977C515.618 446.823 516.481 447.62 517.588 448.369C518.727 449.118 520.094 449.834 521.689 450.518C523.317 451.201 525.14 451.868 527.158 452.52C530.934 453.724 534.287 455.075 537.217 456.572C540.179 458.037 542.669 459.714 544.688 461.602C546.738 463.457 548.285 465.573 549.326 467.949C550.4 470.326 550.938 473.011 550.938 476.006C550.938 479.196 550.319 482.028 549.082 484.502C547.845 486.976 546.071 489.076 543.76 490.801C541.449 492.493 538.682 493.779 535.459 494.658C532.236 495.537 528.639 495.977 524.668 495.977C521.022 495.977 517.425 495.521 513.877 494.609C510.361 493.665 507.171 492.233 504.307 490.312C501.442 488.359 499.147 485.869 497.422 482.842C495.729 479.782 494.883 476.152 494.883 471.953H512.07C512.07 474.036 512.347 475.794 512.9 477.227C513.454 478.659 514.268 479.814 515.342 480.693C516.416 481.54 517.734 482.158 519.297 482.549C520.859 482.907 522.65 483.086 524.668 483.086C526.849 483.086 528.607 482.777 529.941 482.158C531.276 481.507 532.253 480.661 532.871 479.619C533.49 478.545 533.799 477.373 533.799 476.104ZM82.6562 527.703V538.25H53.4766V527.703H82.6562ZM58.0469 505.125V562H44.3359V505.125H58.0469ZM91.875 505.125V562H78.2031V505.125H91.875ZM139.727 551.453V562H109.414V551.453H139.727ZM114.297 505.125V562H100.586V505.125H114.297ZM135.82 527.703V537.898H109.414V527.703H135.82ZM139.844 505.125V515.711H109.414V505.125H139.844ZM145.352 505.125H167.734C172.109 505.125 175.911 505.776 179.141 507.078C182.37 508.38 184.857 510.307 186.602 512.859C188.372 515.411 189.258 518.562 189.258 522.312C189.258 525.568 188.75 528.289 187.734 530.477C186.719 532.664 185.299 534.474 183.477 535.906C181.68 537.312 179.583 538.471 177.188 539.383L172.695 541.922H153.906L153.828 531.336H167.734C169.479 531.336 170.924 531.023 172.07 530.398C173.216 529.773 174.076 528.888 174.648 527.742C175.247 526.57 175.547 525.177 175.547 523.562C175.547 521.922 175.247 520.516 174.648 519.344C174.049 518.172 173.164 517.273 171.992 516.648C170.846 516.023 169.427 515.711 167.734 515.711H159.062V562H145.352V505.125ZM176.484 562L163.906 536.844L178.438 536.766L191.172 561.414V562H176.484ZM197.539 505.125H219.922C224.297 505.125 228.099 505.776 231.328 507.078C234.557 508.38 237.044 510.307 238.789 512.859C240.56 515.411 241.445 518.562 241.445 522.312C241.445 525.568 240.938 528.289 239.922 530.477C238.906 532.664 237.487 534.474 235.664 535.906C233.867 537.312 231.771 538.471 229.375 539.383L224.883 541.922H206.094L206.016 531.336H219.922C221.667 531.336 223.112 531.023 224.258 530.398C225.404 529.773 226.263 528.888 226.836 527.742C227.435 526.57 227.734 525.177 227.734 523.562C227.734 521.922 227.435 520.516 226.836 519.344C226.237 518.172 225.352 517.273 224.18 516.648C223.034 516.023 221.615 515.711 219.922 515.711H211.25V562H197.539V505.125ZM228.672 562L216.094 536.844L230.625 536.766L243.359 561.414V562H228.672ZM273.828 517.078L259.961 562H245.234L266.133 505.125H275.469L273.828 517.078ZM285.312 562L271.406 517.078L269.609 505.125H279.062L300.078 562H285.312ZM284.766 540.789V551.375H255.586V540.789H284.766ZM311.055 505.125H322.227L334.922 544.695L347.617 505.125H358.789L339.453 562H330.391L311.055 505.125ZM304.258 505.125H315.82L317.969 548.719V562H304.258V505.125ZM354.023 505.125H365.625V562H351.875V548.719L354.023 505.125ZM388.984 505.125V562H375.312V505.125H388.984ZM437.773 551.453V562H407.461V551.453H437.773ZM412.344 505.125V562H398.633V505.125H412.344ZM433.867 527.703V537.898H407.461V527.703H433.867ZM437.891 505.125V515.711H407.461V505.125H437.891ZM490.898 505.125V562H477.227L457.109 526.609V562H443.398V505.125H457.109L477.227 540.516V505.125H490.898ZM525.938 505.125V562H512.227V505.125H525.938ZM543.047 505.125V515.711H495.508V505.125H543.047ZM568.203 517.078L554.336 562H539.609L560.508 505.125H569.844L568.203 517.078ZM579.688 562L565.781 517.078L563.984 505.125H573.438L594.453 562H579.688ZM579.141 540.789V551.375H549.961V540.789H579.141ZM627.93 546.883C627.93 545.997 627.799 545.203 627.539 544.5C627.279 543.771 626.797 543.094 626.094 542.469C625.391 541.844 624.375 541.219 623.047 540.594C621.745 539.943 620.026 539.266 617.891 538.562C615.391 537.729 612.982 536.792 610.664 535.75C608.346 534.682 606.276 533.445 604.453 532.039C602.63 530.607 601.185 528.94 600.117 527.039C599.049 525.112 598.516 522.872 598.516 520.32C598.516 517.872 599.062 515.672 600.156 513.719C601.25 511.74 602.773 510.06 604.727 508.68C606.706 507.273 609.023 506.206 611.68 505.477C614.336 504.721 617.24 504.344 620.391 504.344C624.557 504.344 628.229 505.073 631.406 506.531C634.609 507.964 637.109 510.008 638.906 512.664C640.729 515.294 641.641 518.406 641.641 522H628.008C628.008 520.568 627.708 519.305 627.109 518.211C626.536 517.117 625.664 516.258 624.492 515.633C623.32 515.008 621.849 514.695 620.078 514.695C618.359 514.695 616.914 514.956 615.742 515.477C614.57 515.997 613.685 516.701 613.086 517.586C612.487 518.445 612.188 519.396 612.188 520.438C612.188 521.297 612.422 522.078 612.891 522.781C613.385 523.458 614.076 524.096 614.961 524.695C615.872 525.294 616.966 525.867 618.242 526.414C619.544 526.961 621.003 527.495 622.617 528.016C625.638 528.979 628.32 530.06 630.664 531.258C633.034 532.43 635.026 533.771 636.641 535.281C638.281 536.766 639.518 538.458 640.352 540.359C641.211 542.26 641.641 544.409 641.641 546.805C641.641 549.357 641.146 551.622 640.156 553.602C639.167 555.581 637.747 557.26 635.898 558.641C634.049 559.995 631.836 561.023 629.258 561.727C626.68 562.43 623.802 562.781 620.625 562.781C617.708 562.781 614.831 562.417 611.992 561.688C609.18 560.932 606.628 559.786 604.336 558.25C602.044 556.688 600.208 554.695 598.828 552.273C597.474 549.826 596.797 546.922 596.797 543.562H610.547C610.547 545.229 610.768 546.635 611.211 547.781C611.654 548.927 612.305 549.852 613.164 550.555C614.023 551.232 615.078 551.727 616.328 552.039C617.578 552.326 619.01 552.469 620.625 552.469C622.37 552.469 623.776 552.221 624.844 551.727C625.911 551.206 626.693 550.529 627.188 549.695C627.682 548.836 627.93 547.898 627.93 546.883Z" fill="#36C0DE"/>
</svg>
